<svg width="14" height="14" viewBox="0 0 14 14" fill="none" xmlns="http://www.w3.org/2000/svg">
<path d="M10.35 8.75V4.75C10.35 2.86467 10.35 1.92133 9.8226 1.336C9.2958 0.75 8.4468 0.75 6.75 0.75H4.35C2.6532 0.75 1.8042 0.75 1.2774 1.336C0.75 1.92133 0.75 2.86467 0.75 4.75V8.75C0.75 10.6353 0.75 11.5787 1.2774 12.164C1.8042 12.75 2.6532 12.75 4.35 12.75H11.55M3.15 4.08333H7.95M3.15 6.75H7.95M3.15 9.41667H5.55" stroke="black" stroke-width="1.5" stroke-linecap="round" stroke-linejoin="round"/>
<path d="M10.3501 4.08337H10.9501C11.7985 4.08337 12.2227 4.08337 12.4861 4.37671C12.7501 4.66937 12.7501 5.14071 12.7501 6.08337V11.4167C12.7501 11.7703 12.6237 12.1095 12.3986 12.3595C12.1736 12.6096 11.8684 12.75 11.5501 12.75C11.2318 12.75 10.9266 12.6096 10.7016 12.3595C10.4765 12.1095 10.3501 11.7703 10.3501 11.4167V4.08337Z" stroke="black" stroke-width="1.5" stroke-linecap="round" stroke-linejoin="round"/>
</svg>
