<svg width="13" height="14" viewBox="0 0 13 14" fill="none" xmlns="http://www.w3.org/2000/svg">
<path d="M3.62258 3.09717C3.43046 3.09717 3.24621 3.17936 3.11036 3.32566C2.97451 3.47196 2.89819 3.67038 2.89819 3.87728C2.89819 4.08418 2.97451 4.2826 3.11036 4.4289C3.24621 4.5752 3.43046 4.65739 3.62258 4.65739H9.36425C9.55637 4.65739 9.74062 4.5752 9.87647 4.4289C10.0123 4.2826 10.0886 4.08418 10.0886 3.87728C10.0886 3.67038 10.0123 3.47196 9.87647 3.32566C9.74062 3.17936 9.55637 3.09717 9.36425 3.09717H3.62258ZM2.90036 7.00006C2.90036 6.57072 3.22319 6.21995 3.62258 6.21995H9.36425C9.55637 6.21995 9.74062 6.30214 9.87647 6.44843C10.0123 6.59473 10.0886 6.79316 10.0886 7.00006C10.0886 7.20695 10.0123 7.40538 9.87647 7.55168C9.74062 7.69798 9.55637 7.78017 9.36425 7.78017H3.62258C3.22319 7.78017 2.90036 7.43017 2.90036 7.00006ZM3.62908 9.34272C3.43687 9.34272 3.25252 9.42495 3.11661 9.57133C2.98069 9.7177 2.90433 9.91622 2.90433 10.1232C2.90433 10.3302 2.98069 10.5287 3.11661 10.6751C3.25252 10.8215 3.43687 10.9037 3.62908 10.9037H9.37075C9.56296 10.9037 9.74731 10.8215 9.88322 10.6751C10.0191 10.5287 10.0955 10.3302 10.0955 10.1232C10.0955 9.91622 10.0191 9.7177 9.88322 9.57133C9.74731 9.42495 9.56296 9.34272 9.37075 9.34272H3.62908Z" fill="black"/>
<path fill-rule="evenodd" clip-rule="evenodd" d="M0 2.33333C0 1.71449 0.228273 1.121 0.634602 0.683418C1.04093 0.245833 1.59203 0 2.16667 0H10.8333C11.408 0 11.9591 0.245833 12.3654 0.683418C12.7717 1.121 13 1.71449 13 2.33333V11.6667C13 12.2855 12.7717 12.879 12.3654 13.3166C11.9591 13.7542 11.408 14 10.8333 14H2.16667C1.59203 14 1.04093 13.7542 0.634602 13.3166C0.228273 12.879 0 12.2855 0 11.6667V2.33333ZM2.16667 1.55556H10.8333C11.0249 1.55556 11.2086 1.6375 11.344 1.78336C11.4795 1.92922 11.5556 2.12705 11.5556 2.33333V11.6667C11.5556 11.8729 11.4795 12.0708 11.344 12.2166C11.2086 12.3625 11.0249 12.4444 10.8333 12.4444H2.16667C1.97512 12.4444 1.79142 12.3625 1.65598 12.2166C1.52054 12.0708 1.44444 11.8729 1.44444 11.6667V2.33333C1.44444 2.12705 1.52054 1.92922 1.65598 1.78336C1.79142 1.6375 1.97512 1.55556 2.16667 1.55556Z" fill="black"/>
</svg>
