<svg width="35" height="34" viewBox="0 0 35 34" fill="none" xmlns="http://www.w3.org/2000/svg">
<rect width="35" height="34" rx="17" fill="#F5F5F5"/>
<path fill-rule="evenodd" clip-rule="evenodd" d="M9.81707 20.2308C10.1664 20.2308 10.5014 20.3766 10.7484 20.6363C10.9954 20.896 11.1341 21.2482 11.1341 21.6154C11.1341 21.9826 10.9954 22.3348 10.7484 22.5945C10.5014 22.8541 10.1664 23 9.81707 23C9.46776 23 9.13276 22.8541 8.88576 22.5945C8.63876 22.3348 8.5 21.9826 8.5 21.6154C8.5 21.2482 8.63876 20.896 8.88576 20.6363C9.13276 20.3766 9.46776 20.2308 9.81707 20.2308ZM25.6211 20.6923C26.1066 20.6923 26.5 21.1022 26.5 21.6154C26.5 22.1254 26.1093 22.5385 25.6211 22.5385H13.3301C13.2147 22.5388 13.1003 22.5152 12.9936 22.469C12.8869 22.4227 12.7899 22.3547 12.7082 22.269C12.6265 22.1832 12.5618 22.0813 12.5177 21.9691C12.4736 21.857 12.451 21.7368 12.4512 21.6154C12.4512 21.1054 12.842 20.6923 13.3301 20.6923H25.6211ZM9.81707 15.6154C10.1664 15.6154 10.5014 15.7613 10.7484 16.0209C10.9954 16.2806 11.1341 16.6328 11.1341 17C11.1341 17.3672 10.9954 17.7194 10.7484 17.9791C10.5014 18.2387 10.1664 18.3846 9.81707 18.3846C9.46776 18.3846 9.13276 18.2387 8.88576 17.9791C8.63876 17.7194 8.5 17.3672 8.5 17C8.5 16.6328 8.63876 16.2806 8.88576 16.0209C9.13276 15.7613 9.46776 15.6154 9.81707 15.6154ZM25.6211 16.0769C26.1066 16.0769 26.5 16.4868 26.5 17C26.5 17.51 26.1093 17.9231 25.6211 17.9231H13.3301C13.2147 17.9234 13.1003 17.8998 12.9936 17.8536C12.8869 17.8073 12.7899 17.7394 12.7082 17.6536C12.6265 17.5678 12.5618 17.4659 12.5177 17.3537C12.4736 17.2416 12.451 17.1214 12.4512 17C12.4512 16.49 12.842 16.0769 13.3301 16.0769H25.6211ZM9.81707 11C10.1664 11 10.5014 11.1459 10.7484 11.4055C10.9954 11.6652 11.1341 12.0174 11.1341 12.3846C11.1341 12.7518 10.9954 13.104 10.7484 13.3637C10.5014 13.6234 10.1664 13.7692 9.81707 13.7692C9.46776 13.7692 9.13276 13.6234 8.88576 13.3637C8.63876 13.104 8.5 12.7518 8.5 12.3846C8.5 12.0174 8.63876 11.6652 8.88576 11.4055C9.13276 11.1459 9.46776 11 9.81707 11ZM25.6211 11.4615C26.1066 11.4615 26.5 11.8714 26.5 12.3846C26.5 12.8946 26.1093 13.3077 25.6211 13.3077H13.3301C13.2147 13.3081 13.1003 13.2844 12.9936 13.2382C12.8869 13.1919 12.7899 13.124 12.7082 13.0382C12.6265 12.9524 12.5618 12.8505 12.5177 12.7384C12.4736 12.6262 12.451 12.506 12.4512 12.3846C12.4512 11.8746 12.842 11.4615 13.3301 11.4615H25.6211Z" fill="black"/>
</svg>
