<svg width="13" height="17" viewBox="0 0 13 17" fill="none" xmlns="http://www.w3.org/2000/svg">
<path d="M6.5 16C9.5195 16 12 13.5527 12 10.4117C12 9.64075 11.9615 8.81425 11.5435 7.5295C11.1255 6.24475 11.0415 6.079 10.5997 5.2855C10.4109 6.90438 9.4007 7.57938 9.14403 7.78113C9.14403 7.57113 8.53317 5.251 7.6066 3.86238C6.6969 2.5 5.45977 1.60637 4.7345 1C4.7345 2.15125 4.41807 3.86275 3.9645 4.735C3.5113 5.60688 3.42623 5.63875 2.85973 6.2875C2.29323 6.93625 2.03363 7.13688 1.5599 7.92438C1.08617 8.71188 1 9.76075 1 10.5317C1 13.6727 3.4805 16 6.5 16Z" stroke="url(#paint0_linear_65_23)" stroke-width="2" stroke-linejoin="round"/>
<defs>
<linearGradient id="paint0_linear_65_23" x1="13" y1="8" x2="3.02737e-07" y2="8" gradientUnits="userSpaceOnUse">
<stop stop-color="#24458D"/>
<stop offset="1" stop-color="#7BC7B8"/>
</linearGradient>
</defs>
</svg>
