<svg width="13" height="15" viewBox="0 0 13 15" fill="none" xmlns="http://www.w3.org/2000/svg">
<path d="M6.5 14C9.5195 14 12 11.879 12 9.15685C12 8.48865 11.9615 7.77235 11.5435 6.6589C11.1255 5.54545 11.0415 5.4018 10.5997 4.7141C10.4109 6.11712 9.4007 6.70212 9.14403 6.87697C9.14403 6.69497 8.53317 4.6842 7.6066 3.48073C6.6969 2.3 5.45977 1.52552 4.7345 1C4.7345 1.99775 4.41807 3.48105 3.9645 4.237C3.5113 4.99262 3.42623 5.02025 2.85973 5.5825C2.29323 6.14475 2.03363 6.31862 1.5599 7.00112C1.08617 7.68362 1 8.59265 1 9.26085C1 11.983 3.4805 14 6.5 14Z" stroke="black" stroke-width="2" stroke-linejoin="round"/>
</svg>
